<svg xmlns="http://www.w3.org/2000/svg" width="680" height="340" viewBox="0 0 680 340" font-family="Arial, Helvetica, sans-serif">
<defs><marker id="arrow" viewBox="0 0 10 10" refX="8" refY="5" markerWidth="6" markerHeight="6" orient="auto-start-reverse"><path d="M2 1L8 5L2 9" fill="none" stroke="#666" stroke-width="1.5" stroke-linecap="round" stroke-linejoin="round"/></marker></defs>
<rect width="680" height="340" fill="#ffffff"/>

<rect x="40" y="40" width="140" height="56" rx="8" fill="#F1EFE8" stroke="#5F5E5A" stroke-width="0.5"/>
<text x="110" y="66" text-anchor="middle" font-size="14" font-weight="bold" fill="#2C2C2A">Navegador</text>
<text x="110" y="84" text-anchor="middle" font-size="12" fill="#5F5E5A">Usuário acessa a URL</text>

<rect x="270" y="40" width="150" height="56" rx="8" fill="#E6F1FB" stroke="#185FA5" stroke-width="0.5"/>
<text x="345" y="66" text-anchor="middle" font-size="14" font-weight="bold" fill="#042C53">Rotas</text>
<text x="345" y="84" text-anchor="middle" font-size="12" fill="#0C447C">routes/index.js</text>

<rect x="500" y="40" width="140" height="56" rx="8" fill="#FAEEDA" stroke="#854F0B" stroke-width="0.5"/>
<text x="570" y="66" text-anchor="middle" font-size="14" font-weight="bold" fill="#412402">Middleware</text>
<text x="570" y="84" text-anchor="middle" font-size="12" fill="#633806">CSRF, admin, sessão</text>

<rect x="500" y="150" width="140" height="56" rx="8" fill="#EEEDFE" stroke="#534AB7" stroke-width="0.5"/>
<text x="570" y="176" text-anchor="middle" font-size="14" font-weight="bold" fill="#26215C">Controller</text>
<text x="570" y="194" text-anchor="middle" font-size="12" fill="#3C3489">Regras de negócio</text>

<rect x="270" y="150" width="150" height="56" rx="8" fill="#E1F5EE" stroke="#0F6E56" stroke-width="0.5"/>
<text x="345" y="176" text-anchor="middle" font-size="14" font-weight="bold" fill="#04342C">Model</text>
<text x="345" y="194" text-anchor="middle" font-size="12" fill="#085041">Acesso aos dados</text>

<rect x="40" y="150" width="140" height="56" rx="8" fill="#EAF3DE" stroke="#3B6D11" stroke-width="0.5"/>
<text x="110" y="176" text-anchor="middle" font-size="14" font-weight="bold" fill="#173404">Banco</text>
<text x="110" y="194" text-anchor="middle" font-size="12" fill="#27500A">Arquivo JSON</text>

<rect x="270" y="260" width="150" height="56" rx="8" fill="#EEEDFE" stroke="#534AB7" stroke-width="0.5"/>
<text x="345" y="286" text-anchor="middle" font-size="14" font-weight="bold" fill="#26215C">View</text>
<text x="345" y="304" text-anchor="middle" font-size="12" fill="#3C3489">EJS gera o HTML</text>

<rect x="40" y="260" width="140" height="56" rx="8" fill="#F1EFE8" stroke="#5F5E5A" stroke-width="0.5"/>
<text x="110" y="286" text-anchor="middle" font-size="14" font-weight="bold" fill="#2C2C2A">Resposta</text>
<text x="110" y="304" text-anchor="middle" font-size="12" fill="#5F5E5A">HTML ao navegador</text>

<line x1="180" y1="68" x2="266" y2="68" stroke="#666" stroke-width="1.5" marker-end="url(#arrow)"/>
<line x1="420" y1="68" x2="496" y2="68" stroke="#666" stroke-width="1.5" marker-end="url(#arrow)"/>
<line x1="570" y1="96" x2="570" y2="146" stroke="#666" stroke-width="1.5" marker-end="url(#arrow)"/>
<line x1="500" y1="178" x2="424" y2="178" stroke="#666" stroke-width="1.5" marker-end="url(#arrow)"/>
<line x1="270" y1="178" x2="184" y2="178" stroke="#666" stroke-width="1.5" marker-end="url(#arrow)"/>
<line x1="530" y1="206" x2="410" y2="256" stroke="#666" stroke-width="1.5" marker-end="url(#arrow)"/>
<line x1="270" y1="288" x2="184" y2="288" stroke="#666" stroke-width="1.5" marker-end="url(#arrow)"/>
</svg>
